<svg width="70" height="71" viewBox="0 0 70 71" fill="none" xmlns="http://www.w3.org/2000/svg">
<path d="M57.9719 18.1018H25.6669V17.8176C25.6669 16.0732 24.2473 14.6536 22.5029 14.6536C20.7585 14.6536 19.3389 16.0732 19.3389 17.8176V18.1018H18.7453V17.8176C18.7453 16.0732 17.3257 14.6536 15.5813 14.6536C13.8369 14.6536 12.4173 16.0732 12.4173 17.8176V18.1018H12.1604C8.99504 18.1018 6.41833 20.6771 6.41833 23.8425V49.9399C6.41833 53.1053 8.99504 55.6806 12.1604 55.6806H57.9726C61.138 55.6806 63.7147 53.1053 63.7147 49.9399V23.8425C63.7133 20.6764 61.1373 18.1018 57.9719 18.1018ZM13.888 17.8169C13.888 16.8831 14.6468 16.1243 15.5806 16.1243C16.5144 16.1243 17.2732 16.8831 17.2732 17.8169V18.1011H13.888V17.8169ZM62.2419 49.9399C62.2419 52.2933 60.3267 54.2092 57.9712 54.2092H12.1597C9.80424 54.2092 7.88904 52.294 7.88904 49.9399V36.5601H21.4242C21.3955 36.9325 21.3675 37.3042 21.3675 37.6836C21.3675 45.6615 27.8579 52.1519 35.8358 52.1519C43.8137 52.1519 50.3041 45.6615 50.3041 37.6836C50.3041 37.3042 50.2761 36.9318 50.2474 36.5601H62.2426L62.2419 49.9399ZM22.8389 37.6843C22.8389 30.5184 28.6699 24.6874 35.8358 24.6874C43.0017 24.6874 48.8327 30.5184 48.8327 37.6843C48.8327 44.8502 43.0017 50.6812 35.8358 50.6812C28.6699 50.6812 22.8389 44.8502 22.8389 37.6843ZM62.2419 35.0894H50.0584C48.8306 28.347 42.9268 23.216 35.8358 23.216C28.7448 23.216 22.841 28.347 21.6132 35.0894H7.88904V23.8425C7.88904 21.4891 9.80424 19.5732 12.1597 19.5732H19.782C19.8716 19.6124 19.9703 19.6348 20.0746 19.6348C20.1789 19.6348 20.2776 19.6117 20.3672 19.5732H57.9726C60.3274 19.5732 62.2433 21.4884 62.2433 23.8425V35.0894H62.2419ZM35.8358 48.1178C41.5891 48.1178 46.2693 43.4376 46.2693 37.6843C46.2693 31.931 41.5891 27.2508 35.8358 27.2508C30.0825 27.2508 25.4023 31.931 25.4023 37.6843C25.4023 43.4376 30.0825 48.1178 35.8358 48.1178ZM35.8358 28.7222C40.7771 28.7222 44.7979 32.743 44.7979 37.6843C44.7979 42.6256 40.7771 46.6464 35.8358 46.6464C30.8945 46.6464 26.8737 42.6256 26.8737 37.6843C26.8737 32.7423 30.8938 28.7222 35.8358 28.7222ZM57.1179 23.0732H52.9536C51.2092 23.0732 49.7896 24.4928 49.7896 26.2372C49.7896 27.9816 51.2092 29.4012 52.9536 29.4012H57.1179C58.8623 29.4012 60.2819 27.9816 60.2819 26.2372C60.2819 24.4928 58.8623 23.0732 57.1179 23.0732ZM57.1179 27.9305H52.9536C52.0198 27.9305 51.261 27.1717 51.261 26.2379C51.261 25.3041 52.0198 24.5453 52.9536 24.5453H57.1179C58.0517 24.5453 58.8105 25.3041 58.8105 26.2379C58.8105 27.1717 58.0524 27.9305 57.1179 27.9305ZM18.9833 25.5015H12.1779C11.7712 25.5015 11.4422 25.8305 11.4422 26.2372C11.4422 26.6439 11.7712 26.9729 12.1779 26.9729H18.9833C19.39 26.9729 19.719 26.6439 19.719 26.2372C19.719 25.8312 19.39 25.5015 18.9833 25.5015Z" fill="#C09A64"/>
</svg>
