<svg width="70" height="71" viewBox="0 0 70 71" fill="none" xmlns="http://www.w3.org/2000/svg">
<path d="M42.1624 23.7236C32.3617 23.7236 24.3859 31.698 24.3859 41.5001C24.3859 51.3015 32.3603 59.2773 42.1624 59.2773C51.9638 59.2773 59.9389 51.3015 59.9389 41.5001C59.9389 31.698 51.9638 23.7236 42.1624 23.7236ZM42.1624 57.8759C33.1331 57.8759 25.7859 50.5294 25.7859 41.4994C25.7859 32.4687 33.1324 25.1222 42.1624 25.1222C51.1924 25.1222 58.5389 32.4687 58.5389 41.5001C58.5389 50.5294 51.1931 57.8759 42.1624 57.8759Z" fill="#C09A64"/>
<path d="M42.1624 26.7959C34.0543 26.7959 27.4589 33.392 27.4589 41.4994C27.4589 49.6068 34.055 56.2036 42.1624 56.2036C50.2712 56.2036 56.8673 49.6068 56.8673 41.4994C56.8673 33.392 50.2712 26.7959 42.1624 26.7959ZM42.1624 54.8036C34.8271 54.8036 28.8589 48.8354 28.8589 41.4994C28.8589 34.1634 34.8271 28.1952 42.1624 28.1952C49.4977 28.1952 55.4673 34.1627 55.4673 41.5001C55.4673 48.8354 49.4991 54.8036 42.1624 54.8036Z" fill="#C09A64"/>
<path d="M69.3 26.7957H66.9788C66.7975 25.206 65.9967 23.6604 64.645 22.2723L64.8256 20.4033C64.8585 20.0624 64.6394 19.7474 64.3104 19.6592L59.8143 18.4573C59.7492 18.4132 59.6827 18.3733 59.6029 18.3523C59.5231 18.3313 59.4426 18.3313 59.3649 18.3376L56.9779 17.6999L56.9765 17.6992L54.5335 17.0454C54.1968 16.9544 53.8552 17.121 53.7145 17.4325L53.4233 18.0765L52.1815 15.2177C51.5333 13.7246 50.0507 12.4737 48.4323 11.9074C48.4323 11.9004 48.4365 11.8941 48.4365 11.8878C48.4365 10.0391 46.3253 9.10254 42.1652 9.10254C38.0093 9.10254 35.9009 10.037 35.8939 11.8794C34.2727 12.438 32.7831 13.6784 32.123 15.1638L30.3723 19.1027L18.0719 19.7005C17.4741 19.7145 16.7258 19.7551 15.9446 19.8167C15.0675 19.2777 13.6549 19.0236 12.3053 19.0236C10.1332 19.0236 7.79591 19.6809 7.79591 21.1243C7.79591 21.1887 7.80571 21.2496 7.81481 21.3119L5.31161 22.2849L4.28611 22.6846C4.13141 22.7455 4.00331 22.8582 3.92421 23.0045C3.43911 23.9047 3.03031 24.8448 2.68451 25.8066L1.01361 24.9715C0.667113 24.7979 0.247113 24.9393 0.0742129 25.2844C-0.0986871 25.6302 0.041313 26.0509 0.387113 26.2238L2.25051 27.1555C1.72131 29.0119 1.43851 30.9425 1.43851 32.8864V60.1115C1.43851 61.4611 2.53611 62.5587 3.88501 62.5587H16.7146C16.8035 62.5587 16.8924 62.5426 16.9757 62.5083L18.0502 62.0778H61.348C63.2772 62.0778 65.1707 61.1734 66.822 59.4626C66.948 59.331 67.018 59.156 67.018 58.9761V28.1964H69.3C69.6871 28.1964 70 27.8828 70 27.4964C70 27.1086 69.6871 26.7957 69.3 26.7957ZM42.1624 60.6764C31.5889 60.6764 22.9852 52.0734 22.9852 41.4992C22.9852 30.925 31.5882 22.322 42.1624 22.322C52.7366 22.322 61.3403 30.9243 61.3403 41.4999C61.3403 52.0734 52.7373 60.6764 42.1624 60.6764ZM56.854 55.8877V56.6423C56.854 57.6524 55.72 58.5071 54.3774 58.5071H53.7299C54.8562 57.7392 55.9013 56.86 56.854 55.8877ZM27.4722 55.8877C28.4242 56.8593 29.47 57.7392 30.597 58.5071H29.9495C28.6069 58.5071 27.4722 57.6524 27.4722 56.6423V55.8877ZM22.5071 34.0309C22.5071 33.4527 22.9313 32.9739 23.4843 32.8829C23.2064 33.4821 22.9572 34.0974 22.7367 34.7274C22.5911 34.5314 22.5071 34.2892 22.5071 34.0309ZM32.0901 18.6792C34.1068 19.83 39.5094 19.977 42.1246 19.977C44.7405 19.977 50.1417 19.8293 52.1598 18.6792L55.1432 25.5469C51.5991 22.658 47.0813 20.9227 42.1645 20.9227C37.1385 20.9227 32.5304 22.7364 28.9527 25.7401L32.0901 18.6792ZM33.1975 16.1872H51.0762L51.5998 17.3933C51.5914 17.415 51.5774 17.4339 51.5704 17.4563C51.0027 17.8693 47.8261 18.5777 42.1246 18.5777C36.4231 18.5777 33.2458 17.8693 32.6788 17.4556C32.6739 17.4381 32.662 17.4241 32.6557 17.4073L33.1975 16.1872ZM58.5522 19.5696L58.3527 20.3123L57.0934 19.9756L57.2908 19.2329L58.5522 19.5696ZM61.1639 20.2682L60.9658 21.0109L59.7051 20.6742L59.9039 19.9315L61.1639 20.2682ZM54.586 20.7533L56.0546 21.1467L63.5579 23.1529C64.7136 24.3072 65.3814 25.5301 65.5634 26.7957H57.211L54.586 20.7533ZM63.2996 21.6346L62.3182 21.3721L62.5163 20.6294L63.3752 20.8583L63.2996 21.6346ZM54.7442 18.5511L55.9391 18.8703L55.741 19.613L54.4222 19.2602L54.7442 18.5511ZM42.1624 10.5011C44.7762 10.5011 46.5717 10.926 46.9553 11.605C46.8524 11.598 46.7481 11.5784 46.6459 11.5777L37.6838 11.5567C37.6803 11.5567 37.6768 11.5567 37.6726 11.5567C37.5767 11.5567 37.4794 11.5756 37.3814 11.5819C37.7937 10.9162 39.5794 10.5011 42.1624 10.5011ZM37.6726 12.9567C37.6754 12.9567 37.6782 12.9567 37.681 12.9567L46.6431 12.9777C47.9136 12.9812 49.3563 13.7456 50.2544 14.7872H34.02C34.923 13.733 36.3874 12.9567 37.6726 12.9567ZM18.1188 21.0991L19.9675 21.0088C19.4635 22.4158 16.4423 23.8291 12.257 23.8291C10.4216 23.8291 8.65831 23.5379 7.25621 23.029L8.40911 22.5789C8.50991 22.5397 8.62261 22.5054 8.72971 22.4676C9.61031 22.9793 10.9851 23.2229 12.3018 23.2229C14.4557 23.2229 16.7699 22.5754 16.8084 21.1579C17.283 21.1292 17.7317 21.1082 18.1188 21.0991ZM12.3025 20.4229C13.9181 20.4229 14.9205 20.7939 15.2796 21.0473C15.2803 21.0487 15.2817 21.0494 15.2831 21.0501C15.3188 21.076 15.3552 21.1012 15.3776 21.1229C15.1312 21.37 14.0868 21.8229 12.3025 21.8229C10.5182 21.8229 9.47381 21.37 9.22741 21.1229C9.47381 20.8772 10.5182 20.4229 12.3025 20.4229ZM18.6151 60.6764V37.3209C18.6151 34.5888 20.223 32.0905 22.7115 30.9579C23.0629 30.7976 23.219 30.3825 23.0587 30.0304C22.8984 29.6783 22.4819 29.5229 22.1312 29.6839C19.145 31.0433 17.2158 34.0414 17.2158 37.3209V60.9025L16.5802 61.158H3.88501C3.30821 61.158 2.83851 60.6876 2.83851 60.1108V32.8864C2.83851 29.7546 3.59801 26.6522 5.03721 23.8949L5.43481 23.7395C7.15681 24.6859 9.61031 25.2291 12.2577 25.2291C17.1857 25.2291 21.0826 23.3699 21.4179 20.9381L29.7332 20.5342L26.1492 28.5989C25.4135 29.5103 24.7541 30.4847 24.1801 31.5137C24.0149 31.4808 23.8455 31.464 23.674 31.464C22.2586 31.464 21.1071 32.6155 21.1071 34.0309C21.1071 34.9234 21.5642 35.7207 22.2866 36.1841C21.8323 37.8809 21.5866 39.6624 21.5866 41.4999C21.5866 46.3369 23.268 50.7861 26.0722 54.3022V56.643C26.0722 58.4434 27.8117 59.9092 29.9495 59.9092H32.9847C33.5482 60.1906 34.1257 60.4475 34.7172 60.6778L18.6151 60.6764ZM65.6187 58.6863C64.2726 60.0072 62.8369 60.6764 61.3466 60.6764H49.609C50.2005 60.4461 50.7787 60.1906 51.3422 59.9071H54.3774C56.5159 59.9071 58.254 58.4427 58.254 56.6423V54.3029C61.0589 50.7854 62.7403 46.3362 62.7403 41.4992C62.7403 36.4298 60.8937 31.7853 57.8424 28.195H65.6187V58.6863Z" fill="#C09A64"/>
<path d="M17.0009 26.2764H6.88167C6.53937 26.2764 6.24747 26.5242 6.19147 26.8609L5.83027 29.0295C5.79667 29.2325 5.85337 29.4404 5.98637 29.5979C6.11937 29.7547 6.31467 29.8457 6.52047 29.8457H17.3621C17.5679 29.8457 17.7632 29.7547 17.8962 29.5979C18.0292 29.4404 18.0859 29.2332 18.0523 29.0295L17.6911 26.8609C17.6351 26.5235 17.3432 26.2764 17.0009 26.2764ZM12.6413 27.6764H13.7711V28.445H12.6413V27.6764ZM11.2413 28.4443H10.1115V27.6757H11.2413V28.4443ZM7.47457 27.6764H8.71147V28.445H7.34647L7.47457 27.6764ZM15.1711 28.4443V27.6757H16.408L16.5361 28.4443H15.1711Z" fill="#C09A64"/>
<path d="M26.992 25.0557C26.992 23.6403 25.8405 22.4888 24.4251 22.4888C23.0097 22.4888 21.8582 23.6403 21.8582 25.0557C21.8582 26.4711 23.0097 27.6233 24.4251 27.6233C25.8405 27.6233 26.992 26.4718 26.992 25.0557ZM23.2575 25.0557C23.2575 24.4124 23.7811 23.8888 24.4244 23.8888C25.0677 23.8888 25.5913 24.4124 25.5913 25.0557C25.5913 25.6997 25.0677 26.2233 24.4244 26.2233C23.7811 26.2233 23.2575 25.6997 23.2575 25.0557Z" fill="#C09A64"/>
<path d="M42.1624 34.2437C38.1619 34.2437 34.9076 37.498 34.9076 41.4999C34.9076 45.5004 38.1619 48.7539 42.1624 48.7539C46.1636 48.7539 49.4179 45.5004 49.4179 41.4999C49.4179 37.4994 46.1636 34.2437 42.1624 34.2437ZM42.1624 47.3546C38.9347 47.3546 36.3076 44.7283 36.3076 41.4999C36.3076 38.2722 38.9347 35.6444 42.1624 35.6444C45.3908 35.6444 48.0179 38.2715 48.0179 41.4999C48.0186 44.7283 45.3922 47.3546 42.1624 47.3546Z" fill="#C09A64"/>
</svg>
