<svg width="70" height="71" viewBox="0 0 70 71" fill="none" xmlns="http://www.w3.org/2000/svg">
<path d="M18.4844 50.7061H19.139L19.8065 57.4627C19.8417 57.8209 20.1431 58.094 20.5031 58.094H21.4757L22.1221 62.8142C22.1697 63.1608 22.4656 63.4192 22.8156 63.4192H46.1809C46.5309 63.4192 46.8269 63.1608 46.8744 62.8142L47.5209 58.094H48.4931C48.8531 58.094 49.1545 57.8209 49.1897 57.4627L49.8572 50.7061H50.5118C50.8984 50.7061 51.2118 50.3926 51.2118 50.0061V20.2157H51.517C51.8547 20.2157 52.1442 19.9748 52.2054 19.6425L54.3054 8.246C54.343 8.0416 54.288 7.83105 54.155 7.67144C54.022 7.51147 53.8248 7.41919 53.617 7.41919H49.6385C48.2053 7.41919 46.9427 8.28188 46.4212 9.61694L45.1791 12.8004H42.3729L41.1308 9.61694C40.6093 8.28188 39.3467 7.41919 37.9135 7.41919H31.1323C29.6991 7.41919 28.4365 8.28188 27.9149 9.61729L26.6728 12.8004H23.8667L22.6246 9.61694C22.103 8.28188 20.8404 7.41919 19.4073 7.41919H15.3795C15.1717 7.41919 14.9745 7.51147 14.8415 7.67144C14.7086 7.83105 14.6535 8.0416 14.6911 8.246L16.7911 19.6425C16.8523 19.9748 17.1418 20.2157 17.4795 20.2157H17.7844V50.0061C17.7844 50.3926 18.0978 50.7061 18.4844 50.7061ZM49.8118 37.6234H19.1844V27.1863H49.8118V37.6234ZM19.1844 49.3061V39.0234H49.8118V49.3061H19.1844ZM45.5701 62.0192H23.4264L22.8888 58.094H46.1078L45.5701 62.0192ZM47.8588 56.694H21.1374L20.5457 50.7061H48.4505L47.8588 56.694ZM49.8118 25.7863H19.1844V20.2157H49.8118V25.7863ZM16.2203 8.81919H19.4073C20.2593 8.81919 21.0103 9.33223 21.3203 10.1262L22.7364 13.7547C22.8413 14.0237 23.1 14.2004 23.3885 14.2004H27.151C27.4395 14.2004 27.6982 14.0237 27.8031 13.7547L29.2192 10.1262C29.5292 9.33223 30.2802 8.81919 31.1323 8.81919H37.9135C38.7656 8.81919 39.5165 9.33223 39.8265 10.1262L41.2426 13.7547C41.3475 14.0237 41.6063 14.2004 41.8948 14.2004H45.6573C45.9457 14.2004 46.2045 14.0237 46.3094 13.7547L47.7255 10.1262C48.0355 9.33223 48.7864 8.81919 49.6385 8.81919H52.7762L50.9343 18.8157H18.0623L16.2203 8.81919Z" fill="#C09A64"/>
<path d="M21.9871 41.3147C21.6005 41.3147 21.2871 41.6281 21.2871 42.0147V46.617C21.2871 47.0036 21.6005 47.317 21.9871 47.317C22.3737 47.317 22.6871 47.0036 22.6871 46.617V42.0147C22.6871 41.6281 22.3737 41.3147 21.9871 41.3147Z" fill="#C09A64"/>
<path d="M25.5616 41.3147C25.175 41.3147 24.8616 41.6281 24.8616 42.0147V46.617C24.8616 47.0036 25.175 47.317 25.5616 47.317C25.9481 47.317 26.2616 47.0036 26.2616 46.617V42.0147C26.2616 41.6281 25.9481 41.3147 25.5616 41.3147Z" fill="#C09A64"/>
<path d="M29.1362 41.3147C28.7496 41.3147 28.4362 41.6281 28.4362 42.0147V46.617C28.4362 47.0036 28.7496 47.317 29.1362 47.317C29.5227 47.317 29.8362 47.0036 29.8362 46.617V42.0147C29.8362 41.6281 29.5227 41.3147 29.1362 41.3147Z" fill="#C09A64"/>
<path d="M32.711 41.3147C32.3244 41.3147 32.011 41.6281 32.011 42.0147V46.617C32.011 47.0036 32.3244 47.317 32.711 47.317C33.0976 47.317 33.411 47.0036 33.411 46.617V42.0147C33.411 41.6281 33.0976 41.3147 32.711 41.3147Z" fill="#C09A64"/>
<path d="M36.2852 41.3147C35.8986 41.3147 35.5852 41.6281 35.5852 42.0147V46.617C35.5852 47.0036 35.8986 47.317 36.2852 47.317C36.6718 47.317 36.9852 47.0036 36.9852 46.617V42.0147C36.9852 41.6281 36.6718 41.3147 36.2852 41.3147Z" fill="#C09A64"/>
<path d="M39.86 41.3147C39.4735 41.3147 39.16 41.6281 39.16 42.0147V46.617C39.16 47.0036 39.4735 47.317 39.86 47.317C40.2466 47.317 40.56 47.0036 40.56 46.617V42.0147C40.56 41.6281 40.2466 41.3147 39.86 41.3147Z" fill="#C09A64"/>
<path d="M43.4345 41.3147C43.0479 41.3147 42.7345 41.6281 42.7345 42.0147V46.617C42.7345 47.0036 43.0479 47.317 43.4345 47.317C43.8211 47.317 44.1345 47.0036 44.1345 46.617V42.0147C44.1345 41.6281 43.8211 41.3147 43.4345 41.3147Z" fill="#C09A64"/>
<path d="M47.0091 41.3147C46.6225 41.3147 46.3091 41.6281 46.3091 42.0147V46.617C46.3091 47.0036 46.6225 47.317 47.0091 47.317C47.3957 47.317 47.7091 47.0036 47.7091 46.617V42.0147C47.7091 41.6281 47.3957 41.3147 47.0091 41.3147Z" fill="#C09A64"/>
<path d="M21.9871 35.4801C22.3737 35.4801 22.6871 35.1667 22.6871 34.7801V30.1778C22.6871 29.7912 22.3737 29.4778 21.9871 29.4778C21.6005 29.4778 21.2871 29.7912 21.2871 30.1778V34.7801C21.2871 35.1667 21.6005 35.4801 21.9871 35.4801Z" fill="#C09A64"/>
<path d="M25.5616 35.4801C25.9481 35.4801 26.2616 35.1667 26.2616 34.7801V30.1778C26.2616 29.7912 25.9481 29.4778 25.5616 29.4778C25.175 29.4778 24.8616 29.7912 24.8616 30.1778V34.7801C24.8616 35.1667 25.175 35.4801 25.5616 35.4801Z" fill="#C09A64"/>
<path d="M29.1362 35.4801C29.5227 35.4801 29.8362 35.1667 29.8362 34.7801V30.1778C29.8362 29.7912 29.5227 29.4778 29.1362 29.4778C28.7496 29.4778 28.4362 29.7912 28.4362 30.1778V34.7801C28.4362 35.1667 28.7496 35.4801 29.1362 35.4801Z" fill="#C09A64"/>
<path d="M32.711 35.4801C33.0976 35.4801 33.411 35.1667 33.411 34.7801V30.1778C33.411 29.7912 33.0976 29.4778 32.711 29.4778C32.3244 29.4778 32.011 29.7912 32.011 30.1778V34.7801C32.011 35.1667 32.3244 35.4801 32.711 35.4801Z" fill="#C09A64"/>
<path d="M36.2852 35.4801C36.6718 35.4801 36.9852 35.1667 36.9852 34.7801V30.1778C36.9852 29.7912 36.6718 29.4778 36.2852 29.4778C35.8986 29.4778 35.5852 29.7912 35.5852 30.1778V34.7801C35.5852 35.1667 35.8986 35.4801 36.2852 35.4801Z" fill="#C09A64"/>
<path d="M39.86 35.4801C40.2466 35.4801 40.56 35.1667 40.56 34.7801V30.1778C40.56 29.7912 40.2466 29.4778 39.86 29.4778C39.4735 29.4778 39.16 29.7912 39.16 30.1778V34.7801C39.16 35.1667 39.4735 35.4801 39.86 35.4801Z" fill="#C09A64"/>
<path d="M43.4345 35.4801C43.8211 35.4801 44.1345 35.1667 44.1345 34.7801V30.1778C44.1345 29.7912 43.8211 29.4778 43.4345 29.4778C43.0479 29.4778 42.7345 29.7912 42.7345 30.1778V34.7801C42.7345 35.1667 43.0479 35.4801 43.4345 35.4801Z" fill="#C09A64"/>
<path d="M47.0091 35.4801C47.3957 35.4801 47.7091 35.1667 47.7091 34.7801V30.1778C47.7091 29.7912 47.3957 29.4778 47.0091 29.4778C46.6225 29.4778 46.3091 29.7912 46.3091 30.1778V34.7801C46.3091 35.1667 46.6225 35.4801 47.0091 35.4801Z" fill="#C09A64"/>
</svg>
