<svg width="71" height="71" viewBox="0 0 71 71" fill="none" xmlns="http://www.w3.org/2000/svg">
<path d="M18.8872 26.5332C19.3403 26.5332 19.7075 26.1659 19.7075 25.7129C19.7075 25.2598 19.3403 24.8926 18.8872 24.8926C18.4342 24.8926 18.0669 25.2598 18.0669 25.7129C18.0669 26.1659 18.4342 26.5332 18.8872 26.5332Z" fill="#C09A64"/>
<path d="M30.3716 26.5332C30.8246 26.5332 31.1919 26.1659 31.1919 25.7129C31.1919 25.2598 30.8246 24.8926 30.3716 24.8926C29.9185 24.8926 29.5513 25.2598 29.5513 25.7129C29.5513 26.1659 29.9185 26.5332 30.3716 26.5332Z" fill="#C09A64"/>
<path d="M43.4835 45.4534L31.7388 42.1957V38.2544C33.8568 36.5782 35.3706 34.1829 35.9005 31.4381C38.4588 31.2653 40.4888 29.1347 40.4888 26.5332V13.5613C40.4888 11.0703 38.8793 8.84344 36.5392 8.04664C35.0824 4.0457 31.2876 1.37695 27.0088 1.37695H24.6294C21.5308 1.37695 18.5279 2.27273 15.9456 3.96695C12.6036 6.16047 8.52994 6.32672 5.3165 4.40008C3.82682 3.50703 3.19682 2.69492 3.19189 2.68891L2.20752 1.37914V3.01758C2.20752 4.83375 2.68111 6.18344 3.14322 7.06773C2.23486 6.63516 1.5108 5.92203 1.49986 5.91164L0.566895 4.98359V6.29883C0.566895 11.2092 2.86322 15.0641 7.20869 17.448C7.72494 17.7312 8.24775 17.9817 8.77002 18.2054V26.5332C8.77002 29.1183 10.7743 31.2396 13.3102 31.4359C13.7843 34.2748 15.3292 36.7494 17.52 38.4343V42.1957L5.77533 45.4534C2.709 46.3044 0.566895 49.1213 0.566895 52.3041V70.2832H13.6919H35.5669H48.6919V52.3041C48.6919 49.1213 46.5498 46.3044 43.4835 45.4534ZM28.7709 57.109L28.702 56.9712C28.422 56.4123 27.8598 56.0645 27.2342 56.0645H25.5618L32.5645 43.5602L35.7993 44.4576L28.7709 57.109ZM20.5568 56.9712L20.4879 57.109L13.4595 44.4576L16.6942 43.5602L23.6964 56.0645H22.0241C21.399 56.0645 20.8363 56.4123 20.5568 56.9712ZM18.0046 43.1965C18.8424 44.1705 21.031 46.2207 24.6294 46.2207C28.2278 46.2207 30.4164 44.1705 31.2542 43.1965L31.4801 43.2594L24.6294 55.4924L17.7787 43.2588L18.0046 43.1965ZM36.0596 30.3258C36.0919 29.9769 36.1138 29.6247 36.1138 29.2676V22.7488C37.9655 23.0157 39.395 24.6087 39.395 26.5332C39.395 28.4762 37.9381 30.0824 36.0596 30.3258ZM1.70932 7.48773C2.40221 7.96844 3.38385 8.48633 4.39502 8.48633L5.69439 8.48414L4.78385 7.555C4.77182 7.54242 3.75572 6.48203 3.41283 4.40883C3.76557 4.69211 4.20908 5.01148 4.75432 5.33797C8.33088 7.48336 12.8497 7.30836 16.546 4.88133C18.949 3.30414 21.7446 2.4707 24.6294 2.4707H27.0088C30.9108 2.4707 34.361 4.95789 35.5953 8.65914L35.6861 8.93258L35.9639 9.01242C37.9841 9.58937 39.395 11.4602 39.395 13.5613V23.4461C38.5949 22.4557 37.4203 21.7803 36.0875 21.6392C35.8201 17.9615 32.7494 15.0488 29.0044 15.0488L28.6511 15.0559L28.504 15.3737C28.4887 15.4087 26.7824 18.877 17.52 18.877C16.8933 18.877 2.64611 18.7441 1.70932 7.48773ZM9.86377 18.6309C11.0056 19.0399 12.124 19.3298 13.145 19.5277V21.6436C11.8232 21.7907 10.6584 22.4623 9.86377 23.4461V18.6309ZM9.86377 26.5332C9.86377 24.6087 11.2933 23.0157 13.145 22.7488V29.5957C13.145 29.8412 13.1663 30.0819 13.1817 30.3236C11.3119 30.0726 9.86377 28.4702 9.86377 26.5332ZM14.2388 29.5957V19.7142C15.752 19.9368 16.9453 19.9707 17.52 19.9707C26.0048 19.9707 28.6451 17.1488 29.3128 16.1508C32.4869 16.3121 35.02 18.9448 35.02 22.1582V29.2676C35.02 34.9972 30.3349 39.6582 24.5758 39.6582H24.3013C18.7527 39.6582 14.2388 35.1443 14.2388 29.5957ZM24.3013 40.752H24.5758C26.8038 40.752 28.8792 40.1094 30.645 39.0162V42.2137C30.2113 42.7798 28.1972 45.127 24.6294 45.127C21.0288 45.127 19.0453 42.788 18.6138 42.2148V39.1759C20.2817 40.1701 22.2226 40.752 24.3013 40.752ZM6.06846 46.5073L6.30143 46.4427L8.18268 51.1464C8.93518 53.0288 9.31689 55.0101 9.31689 57.0363V64.2676H1.66064V52.3041C1.66064 49.6108 3.47299 47.2275 6.06846 46.5073ZM1.66064 65.3613H9.31689V69.1895H1.66064V65.3613ZM10.4106 69.1895V57.0363C10.4106 54.8706 10.0027 52.752 9.19822 50.7401L7.36127 46.1485L12.375 44.7578L19.8716 58.252H16.4263C14.9185 58.252 13.6919 59.4786 13.6919 60.9863V69.1895H10.4106ZM20.2544 64.8145C20.2544 62.4022 22.2171 60.4395 24.6294 60.4395C27.0417 60.4395 29.0044 62.4022 29.0044 64.8145C29.0044 67.2267 27.0417 69.1895 24.6294 69.1895C22.2171 69.1895 20.2544 67.2267 20.2544 64.8145ZM27.8964 69.1895C29.2297 68.1914 30.0981 66.6044 30.0981 64.8145C30.0981 61.799 27.6449 59.3457 24.6294 59.3457C21.6139 59.3457 19.1606 61.799 19.1606 64.8145C19.1606 66.6044 20.0291 68.1914 21.3624 69.1895H14.7856V60.9863C14.7856 60.0818 15.5217 59.3457 16.4263 59.3457H20.5924L21.5352 57.4606C21.6281 57.2741 21.8157 57.1582 22.0246 57.1582H27.2347C27.4436 57.1582 27.6312 57.2741 27.7242 57.4606L28.6664 59.3457H32.8325C33.7371 59.3457 34.4731 60.0818 34.4731 60.9863V69.1895H27.8964ZM32.8325 58.252H29.3872L36.8838 44.7578L41.8975 46.1485L40.0606 50.7401C39.2561 52.752 38.8481 54.8706 38.8481 57.0363V69.1895H35.5669V60.9863C35.5669 59.4786 34.3403 58.252 32.8325 58.252ZM39.9419 69.1895V65.3613H47.5981V69.1895H39.9419ZM47.5981 64.2676H39.9419V57.0363C39.9419 55.0101 40.3236 53.0287 41.0761 51.1459L42.9574 46.4422L43.1903 46.5067C45.7853 47.2264 47.5981 49.6102 47.5981 52.3036V64.2676Z" fill="#C09A64"/>
<path d="M21.895 23.7988V29.2676C21.895 30.7753 23.1217 32.002 24.6294 32.002C26.1371 32.002 27.3638 30.7753 27.3638 29.2676V23.7988C27.3638 23.497 27.6088 23.252 27.9106 23.252H33.3794V22.1582H27.9106C27.0061 22.1582 26.27 22.8943 26.27 23.7988V29.2676C26.27 30.1721 25.5339 30.9082 24.6294 30.9082C23.7249 30.9082 22.9888 30.1721 22.9888 29.2676V23.7988C22.9888 22.8943 22.2527 22.1582 21.3481 22.1582H15.8794V23.252H21.3481C21.65 23.252 21.895 23.497 21.895 23.7988Z" fill="#C09A64"/>
<path d="M29.9614 33.9598L29.1411 33.2368C27.9954 34.5373 26.351 35.2832 24.6294 35.2832C22.9078 35.2832 21.2634 34.5373 20.1177 33.2368L19.2974 33.9598C20.6503 35.496 22.5934 36.377 24.6294 36.377C26.6654 36.377 28.6085 35.496 29.9614 33.9598Z" fill="#C09A64"/>
<path d="M24.6294 61.5332C22.8198 61.5332 21.3481 63.0048 21.3481 64.8145C21.3481 66.6241 22.8198 68.0957 24.6294 68.0957C26.439 68.0957 27.9106 66.6241 27.9106 64.8145C27.9106 63.0048 26.439 61.5332 24.6294 61.5332ZM24.6294 67.002C23.423 67.002 22.4419 66.0209 22.4419 64.8145C22.4419 63.608 23.423 62.627 24.6294 62.627C25.8358 62.627 26.8169 63.608 26.8169 64.8145C26.8169 66.0209 25.8358 67.002 24.6294 67.002Z" fill="#C09A64"/>
<path d="M17.52 60.4395C16.6155 60.4395 15.8794 61.1755 15.8794 62.0801C15.8794 62.9846 16.6155 63.7207 17.52 63.7207C18.4246 63.7207 19.1606 62.9846 19.1606 62.0801C19.1606 61.1755 18.4246 60.4395 17.52 60.4395ZM17.52 62.627C17.2181 62.627 16.9731 62.382 16.9731 62.0801C16.9731 61.7782 17.2181 61.5332 17.52 61.5332C17.8219 61.5332 18.0669 61.7782 18.0669 62.0801C18.0669 62.382 17.8219 62.627 17.52 62.627Z" fill="#C09A64"/>
<path d="M16.9731 67.002H15.8794V68.0957H16.9731V67.002Z" fill="#C09A64"/>
<path d="M16.9731 64.8145H15.8794V65.9082H16.9731V64.8145Z" fill="#C09A64"/>
<path d="M33.3794 67.002H32.2856V68.0957H33.3794V67.002Z" fill="#C09A64"/>
<path d="M33.3794 64.8145H32.2856V65.9082H33.3794V64.8145Z" fill="#C09A64"/>
<path d="M63.4575 39.1113H57.9888V43.4863H63.4575V39.1113ZM62.3638 42.3926H59.0825V40.2051H62.3638V42.3926Z" fill="#C09A64"/>
<path d="M68.3154 11.9125L68.1585 11.7676H47.8191L47.6621 11.9125C46.9156 12.6016 46.5044 13.5214 46.5044 14.502C46.5044 15.4825 46.9156 16.4023 47.6621 17.0914L47.8191 17.2363H48.145V20.0866L50.0378 24.3457H49.2388V28.7207H50.3325V33.0957H49.2388V37.4707H50.3325V39.172C49.9694 38.8013 49.5324 38.5038 49.0452 38.3036L46.4754 36.1008L45.5578 28.2941C45.4391 27.2901 44.5876 26.5332 43.5764 26.5332C42.4772 26.5332 41.5825 27.4279 41.5825 28.5271V39.8846L43.7821 42.0841C43.9062 44.0835 45.5681 45.6738 47.5981 45.6738C48.6689 45.6738 49.6369 45.2309 50.3325 44.5194V48.9551H51.4263V50.5957C51.4263 51.5002 52.1624 52.2363 53.0669 52.2363H62.9106C63.8152 52.2363 64.5513 51.5002 64.5513 50.5957V48.9551H65.645V37.4707H66.7388V33.0957H65.645V28.7207H66.7388V24.3457H65.9398L67.8325 20.0866V17.2363H68.1585L68.3154 17.0914C69.0619 16.4023 69.4731 15.4825 69.4731 14.502C69.4731 13.5214 69.0619 12.6016 68.3154 11.9125ZM60.1763 27.627V25.4395H62.3638V27.627H60.1763ZM59.0825 27.627H56.895V25.4395H59.0825V27.627ZM55.8013 27.627H53.6138V25.4395H55.8013V27.627ZM52.52 27.627H50.3325V25.4395H52.52V27.627ZM50.3325 34.1895H52.52V36.377H50.3325V34.1895ZM60.1763 36.377V34.1895H62.3638V36.377H60.1763ZM59.0825 36.377H56.895V34.1895H59.0825V36.377ZM55.8013 36.377H53.6138V34.1895H55.8013V36.377ZM42.6763 28.5271C42.6763 28.0305 43.0799 27.627 43.5764 27.627C44.0331 27.627 44.4175 27.9687 44.4711 28.4221L45.4396 36.6531L47.0781 38.0575C45.5977 38.2598 44.3831 39.3087 43.9456 40.7011L42.6763 39.4318V28.5271ZM47.5981 44.5801C46.0904 44.5801 44.8638 43.3534 44.8638 41.8457C44.8638 40.338 46.0904 39.1113 47.5981 39.1113C49.1059 39.1113 50.3325 40.338 50.3325 41.8457C50.3325 43.3534 49.1059 44.5801 47.5981 44.5801ZM63.4575 50.5957C63.4575 50.8976 63.2125 51.1426 62.9106 51.1426H53.0669C52.765 51.1426 52.52 50.8976 52.52 50.5957V48.9551H63.4575V50.5957ZM51.4263 47.8613V46.2207H64.5513V47.8613H51.4263ZM64.5513 45.127H51.4263V37.4707H64.5513V45.127ZM65.645 36.377H63.4575V34.1895H65.645V36.377ZM64.5513 33.0957H51.4263V28.7207H64.5513V33.0957ZM65.645 27.627H63.4575V25.4395H65.645V27.627ZM51.2349 24.3457L49.5335 20.5176H66.4445L64.7432 24.3457H51.2349ZM66.7388 19.4238H49.2388V17.2363H66.7388V19.4238ZM67.7193 16.1426H48.2582C47.8311 15.6838 47.5981 15.1079 47.5981 14.502C47.5981 13.896 47.8311 13.3202 48.2582 12.8613H67.7193C68.1464 13.3202 68.3794 13.896 68.3794 14.502C68.3794 15.1079 68.1464 15.6838 67.7193 16.1426Z" fill="#C09A64"/>
<path d="M54.7075 43.4863C55.9139 43.4863 56.895 42.5052 56.895 41.2988C56.895 40.0924 55.9139 39.1113 54.7075 39.1113C53.5011 39.1113 52.52 40.0924 52.52 41.2988C52.52 42.5052 53.5011 43.4863 54.7075 43.4863ZM54.7075 40.2051C55.3107 40.2051 55.8013 40.6956 55.8013 41.2988C55.8013 41.902 55.3107 42.3926 54.7075 42.3926C54.1043 42.3926 53.6138 41.902 53.6138 41.2988C53.6138 40.6956 54.1043 40.2051 54.7075 40.2051Z" fill="#C09A64"/>
<path d="M47.5981 40.2051C46.6936 40.2051 45.9575 40.9412 45.9575 41.8457C45.9575 42.7502 46.6936 43.4863 47.5981 43.4863C48.5027 43.4863 49.2388 42.7502 49.2388 41.8457C49.2388 40.9412 48.5027 40.2051 47.5981 40.2051ZM47.5981 42.3926C47.2963 42.3926 47.0513 42.1476 47.0513 41.8457C47.0513 41.5438 47.2963 41.2988 47.5981 41.2988C47.9 41.2988 48.145 41.5438 48.145 41.8457C48.145 42.1476 47.9 42.3926 47.5981 42.3926Z" fill="#C09A64"/>
<path d="M53.0669 21.6113H51.9731V22.7051H53.0669V21.6113Z" fill="#C09A64"/>
<path d="M55.2544 21.6113H54.1606V22.7051H55.2544V21.6113Z" fill="#C09A64"/>
<path d="M57.4419 21.6113H56.3481V22.7051H57.4419V21.6113Z" fill="#C09A64"/>
<path d="M59.6294 21.6113H58.5356V22.7051H59.6294V21.6113Z" fill="#C09A64"/>
<path d="M61.8169 21.6113H60.7231V22.7051H61.8169V21.6113Z" fill="#C09A64"/>
<path d="M64.0044 21.6113H62.9106V22.7051H64.0044V21.6113Z" fill="#C09A64"/>
</svg>
