<svg width="70" height="71" viewBox="0 0 70 71" fill="none" xmlns="http://www.w3.org/2000/svg">
<path d="M41.166 42.9585H40.5098V41.9194C40.5098 41.1401 39.8672 40.4976 39.0879 40.4976H36.9004C36.1211 40.4976 35.4785 41.1401 35.4785 41.9194V42.9585H33.1406L32.1562 40.8667C31.5547 39.6089 30.2969 38.8159 28.9023 38.8022H21.8066C20.4121 38.8022 19.1543 39.6089 18.5527 40.8667L17.5684 42.9585H15.5176V41.9194C15.5176 41.1401 14.875 40.4976 14.0957 40.4976H11.9082C11.1289 40.4976 10.4863 41.1401 10.4863 41.9194V42.9585H9.55664C7.73828 42.9585 6.26172 44.4351 6.26172 46.2534V61.7983C6.26172 63.6167 7.73828 65.0933 9.55664 65.0933H41.1797C42.998 65.0933 44.4746 63.6167 44.4746 61.7983V46.2671C44.4746 44.4487 42.998 42.9722 41.166 42.9585ZM36.5449 41.9331C36.5449 41.728 36.709 41.5776 36.9004 41.5776H39.0879C39.293 41.5776 39.4434 41.7417 39.4434 41.9331V42.9722H36.5313L36.5449 41.9331ZM11.5391 41.9331C11.5391 41.728 11.7031 41.5776 11.8945 41.5776H14.082C14.2734 41.5776 14.4375 41.7417 14.4375 41.9331V42.9722H11.5391V41.9331ZM7.31445 49.4116H19.6191C17.4316 52.105 17.4316 55.9741 19.6191 58.6675H7.31445V49.4116ZM21.0684 49.4116C21.2734 49.2202 21.4922 49.0425 21.7383 48.8784C22.0254 48.6733 22.3262 48.4956 22.6406 48.3452C24.3633 47.5112 26.3867 47.5112 28.1094 48.3452C28.4238 48.4956 28.7246 48.6733 29.0117 48.8784C31.8691 50.8882 32.5527 54.8257 30.543 57.6831C28.5332 60.5405 24.5957 61.2241 21.7383 59.2144C18.8809 57.2046 18.1973 53.2671 20.207 50.4097C20.4668 50.0542 20.7539 49.7124 21.0684 49.4116ZM43.4082 61.7983C43.4082 63.0288 42.4102 64.0405 41.166 64.0405H9.55664C8.32617 64.0405 7.32813 63.0425 7.31445 61.7983V59.7202H20.6719C23.3926 61.9624 27.3301 61.9624 30.0508 59.7202H43.4082V61.7983ZM43.4082 58.6538H31.1035C33.291 55.9605 33.291 52.0913 31.1035 49.3979H43.4082V58.6538ZM43.4082 48.3452H30.0508C27.3301 46.103 23.3926 46.103 20.6719 48.3452H7.31445V46.2671C7.31445 45.0366 8.3125 44.0249 9.55664 44.0249H17.9102C18.1152 44.0249 18.3066 43.9019 18.3887 43.7241L19.5234 41.3315C19.9473 40.4429 20.8359 39.8823 21.8203 39.8823H28.916C29.9004 39.8823 30.7891 40.4429 31.2129 41.3315L32.3477 43.7241C32.4297 43.9155 32.6211 44.0249 32.8262 44.0249H41.1797C42.4102 44.0249 43.4219 45.023 43.4219 46.2671V48.3452H43.4082Z" fill="#C09A64"/>
<path d="M25.3613 58.6401C27.9043 58.6401 29.9687 56.5757 29.9687 54.0327C29.9687 51.4897 27.9043 49.4253 25.3613 49.4253C22.8184 49.4253 20.7539 51.4897 20.7539 54.0327C20.7676 56.5757 22.8184 58.6401 25.3613 58.6401ZM25.3613 50.4917C27.3164 50.4917 28.9023 52.0776 28.9023 54.0327C28.9023 55.9878 27.3164 57.5737 25.3613 57.5737C23.4062 57.5737 21.8203 55.9878 21.8203 54.0327C21.8203 52.0776 23.4062 50.4917 25.3613 50.4917Z" fill="#C09A64"/>
<path d="M27.6445 41.8785H23.0781C22.791 41.8649 22.5312 42.0836 22.5176 42.3844C22.5039 42.6715 22.7227 42.9313 23.0234 42.9449C23.0371 42.9449 23.0645 42.9449 23.0781 42.9449H27.6445C27.9316 42.9586 28.1914 42.7399 28.2051 42.4391C28.2187 42.152 28 41.8922 27.6992 41.8785C27.6855 41.8785 27.6719 41.8785 27.6445 41.8785Z" fill="#C09A64"/>
<path d="M43.9414 18.8003C44.2285 18.8003 44.4746 18.5679 44.4746 18.2671V6.07178C44.4746 5.78467 44.2422 5.53857 43.9414 5.53857H6.79492C6.50781 5.53857 6.26172 5.771 6.26172 6.07178V31.2007C6.26172 31.4878 6.49414 31.7339 6.79492 31.7339H40.2773C40.5645 31.7339 40.8105 31.5015 40.8105 31.2007C40.8105 30.9136 40.5781 30.6675 40.2773 30.6675H7.32812V6.60498H43.4219V18.2671C43.4082 18.5542 43.6406 18.8003 43.9414 18.8003Z" fill="#C09A64"/>
<path d="M10.7871 9.8999C10.5 9.8999 10.2539 10.1323 10.2539 10.4331V26.8394C10.2539 27.1265 10.4863 27.3726 10.7871 27.3726H39.9492C40.2363 27.3726 40.4824 27.1401 40.4824 26.8394V10.4331C40.4824 10.146 40.25 9.8999 39.9492 9.8999H10.7871ZM22.9414 26.3062H11.3203V24.9526L16.8711 20.7007C17.6094 20.1265 18.6348 20.0854 19.4277 20.605L24.541 23.9409L25.0195 24.2554L25.498 24.5698L28.1777 26.3198L22.9414 26.3062ZM39.416 26.3062H30.1191L26.4551 23.9136L32.334 19.9077C32.8945 19.5249 33.6465 19.5112 34.2207 19.894L39.416 23.2983V26.3062ZM39.416 22.0269L34.7949 19.0054C33.8652 18.3901 32.6484 18.4038 31.7324 19.0327L25.4844 23.2847L20.002 19.7026C18.8398 18.9507 17.3223 19.0054 16.2148 19.853L11.3066 23.6128V10.9663H39.4023V22.0269H39.416Z" fill="#C09A64"/>
<path d="M25.7715 18.8003C27.3301 18.8003 28.5879 17.5425 28.5879 15.9839C28.5879 14.4253 27.3301 13.1675 25.7715 13.1675C24.2129 13.1675 22.9551 14.4253 22.9551 15.9839C22.9551 17.5425 24.2129 18.8003 25.7715 18.8003ZM25.7715 14.2339C26.7422 14.2339 27.5215 15.0132 27.5215 15.9839C27.5215 16.9546 26.7422 17.7339 25.7715 17.7339C24.8008 17.7339 24.0215 16.9546 24.0215 15.9839C24.0078 15.0132 24.8008 14.2339 25.7715 14.2339Z" fill="#C09A64"/>
<path d="M62.6855 20.5503H46.1289C44.9258 20.5503 43.9551 21.5347 43.9414 22.7241V32.0347C43.9414 33.2378 44.9258 34.2085 46.1289 34.2085H47.0313V59.4058C47.0313 60.3491 47.7969 61.1147 48.7402 61.1147H49.3008C51.3379 61.1147 53.2383 60.0757 54.3457 58.3667C55.248 56.9585 56.8203 56.0972 58.4883 56.0972H60.0605C61.0039 56.0972 61.7695 55.3315 61.7695 54.3882V34.2358H62.6719C63.875 34.2358 64.8594 33.2651 64.8594 32.062V22.7378C64.873 21.5347 63.8887 20.5503 62.6855 20.5503ZM47.0313 27.3999V33.1831H46.1289C45.5137 33.1831 45.0078 32.6772 45.0078 32.062V22.7515C45.0078 22.1362 45.5137 21.6304 46.1289 21.6304H47.0313V27.3999ZM60.7168 33.1694V54.3745C60.7168 54.73 60.4297 55.0171 60.0742 55.0308H58.502C56.4648 55.0308 54.5508 56.0698 53.457 57.7788C52.5547 59.187 50.9824 60.0483 49.3145 60.0483H48.7539C48.3984 60.0483 48.1113 59.7612 48.1113 59.4058V27.9194H60.7441L60.7168 33.1694ZM60.7168 26.8667H48.0977V21.6167H60.7305L60.7168 26.8667ZM63.8066 32.062C63.8066 32.6772 63.3008 33.1831 62.6855 33.1831H61.7832V21.6304H62.6855C63.3008 21.6304 63.8066 22.1362 63.8066 22.7515V32.062Z" fill="#C09A64"/>
<path d="M49.998 30.777H51.2695C51.5566 30.7633 51.7891 30.5172 51.7754 30.2164C51.7617 29.943 51.543 29.7242 51.2695 29.7106H49.998C49.7109 29.6969 49.4512 29.9156 49.4375 30.2164C49.4238 30.5035 49.6426 30.7633 49.9434 30.777C49.9707 30.7906 49.9844 30.7906 49.998 30.777Z" fill="#C09A64"/>
<path d="M57.5586 30.7769H58.83C59.1172 30.7905 59.3769 30.5718 59.3906 30.271C59.4043 29.9839 59.1855 29.7241 58.8847 29.7104C58.8711 29.7104 58.8437 29.7104 58.83 29.7104H57.5586C57.2714 29.7241 57.039 29.9702 57.0527 30.271C57.0664 30.5581 57.2851 30.7632 57.5586 30.7769Z" fill="#C09A64"/>
<path d="M49.9981 34.4272H51.2695C51.5566 34.4272 51.8027 34.1812 51.8027 33.894C51.8027 33.6069 51.5703 33.3608 51.2695 33.3608H49.9981C49.7109 33.3608 49.4648 33.5933 49.4648 33.894C49.4785 34.1812 49.7109 34.4272 49.9981 34.4272Z" fill="#C09A64"/>
<path d="M57.5586 34.4272H58.8301C59.1172 34.4272 59.3633 34.1948 59.3633 33.894C59.3633 33.6069 59.1309 33.3608 58.8301 33.3608H57.5586C57.2715 33.3608 57.0254 33.5933 57.0254 33.894C57.0254 34.1812 57.2715 34.4272 57.5586 34.4272Z" fill="#C09A64"/>
<path d="M49.9981 38.064H51.2695C51.5566 38.064 51.8027 37.8315 51.8027 37.5308C51.8027 37.2437 51.5703 36.9976 51.2695 36.9976H49.9981C49.7109 36.9976 49.4648 37.23 49.4648 37.5308C49.4648 37.8315 49.7109 38.064 49.9981 38.064Z" fill="#C09A64"/>
<path d="M57.5586 38.064H58.8301C59.1172 38.064 59.3633 37.8315 59.3633 37.5308C59.3633 37.2437 59.1309 36.9976 58.8301 36.9976H57.5586C57.2715 36.9976 57.0254 37.23 57.0254 37.5308C57.0254 37.8315 57.2715 38.064 57.5586 38.064Z" fill="#C09A64"/>
<path d="M49.9981 41.7144H51.2695C51.5566 41.7144 51.8027 41.4819 51.8027 41.1812C51.8027 40.894 51.5703 40.6479 51.2695 40.6479H49.9981C49.7109 40.6479 49.4648 40.8804 49.4648 41.1812C49.4648 41.4683 49.7109 41.7144 49.9981 41.7144Z" fill="#C09A64"/>
<path d="M57.5586 41.7144H58.8301C59.1172 41.7144 59.3633 41.4819 59.3633 41.1812C59.3633 40.894 59.1309 40.6479 58.8301 40.6479H57.5586C57.2715 40.6479 57.0254 40.8804 57.0254 41.1812C57.0254 41.4683 57.2715 41.7144 57.5586 41.7144Z" fill="#C09A64"/>
<path d="M49.998 45.3512H51.2695C51.5566 45.3375 51.7891 45.0914 51.7754 44.7906C51.7617 44.5172 51.543 44.2985 51.2695 44.2848H49.998C49.7109 44.2711 49.4512 44.4899 49.4375 44.7906C49.4238 45.0914 49.6426 45.3375 49.9434 45.3512C49.9707 45.3512 49.9844 45.3512 49.998 45.3512Z" fill="#C09A64"/>
<path d="M57.5586 45.3511H58.83C59.1172 45.3647 59.3769 45.146 59.3906 44.8452C59.4043 44.5444 59.1855 44.2983 58.8847 44.2847C58.8711 44.2847 58.8437 44.2847 58.83 44.2847H57.5586C57.2714 44.2983 57.039 44.5444 57.0527 44.8452C57.0664 45.1187 57.2851 45.3374 57.5586 45.3511Z" fill="#C09A64"/>
<path d="M49.998 48.9879H51.2695C51.5566 48.9742 51.7891 48.7281 51.7754 48.4274C51.7617 48.1539 51.543 47.9352 51.2695 47.9215H49.998C49.7109 47.9078 49.4512 48.1266 49.4375 48.4274C49.4238 48.7281 49.6426 48.9742 49.9434 48.9879C49.9707 48.9879 49.9844 48.9879 49.998 48.9879Z" fill="#C09A64"/>
<path d="M57.5586 48.9878H58.83C59.1172 49.0015 59.3769 48.7827 59.3906 48.4819C59.4043 48.1812 59.1855 47.9351 58.8847 47.9214C58.8711 47.9214 58.8437 47.9214 58.83 47.9214H57.5586C57.2714 47.9351 57.039 48.1812 57.0527 48.4819C57.0664 48.7554 57.2851 48.9741 57.5586 48.9878Z" fill="#C09A64"/>
<path d="M49.998 52.6383H51.2695C51.5566 52.6246 51.7891 52.3785 51.7754 52.0778C51.7617 51.8043 51.543 51.5856 51.2695 51.5719H49.998C49.7109 51.5582 49.4512 51.777 49.4375 52.0778C49.4238 52.3785 49.6426 52.6246 49.9434 52.6383C49.9707 52.6383 49.9844 52.6383 49.998 52.6383Z" fill="#C09A64"/>
<path d="M57.5586 52.6382H58.83C59.1172 52.6519 59.3769 52.4331 59.3906 52.1323C59.4043 51.8315 59.1855 51.5854 58.8847 51.5718C58.8711 51.5718 58.8437 51.5718 58.83 51.5718H57.5586C57.2714 51.5854 57.039 51.8315 57.0527 52.1323C57.0664 52.4058 57.2851 52.6245 57.5586 52.6382Z" fill="#C09A64"/>
</svg>
