<svg width="70" height="71" viewBox="0 0 70 71" fill="none" xmlns="http://www.w3.org/2000/svg">
<path d="M29.3013 60.7417C29.3426 60.7508 29.3853 60.7599 29.428 60.7697C29.8249 60.8565 30.2218 60.9335 30.6222 61.0021C30.6684 61.0105 30.7146 61.0175 30.7608 61.0252C31.164 61.0924 31.5672 61.1484 31.9711 61.196C32.0103 61.2002 32.0488 61.2058 32.0866 61.21C32.5101 61.2569 32.9336 61.2947 33.3599 61.322C33.3767 61.3234 33.3935 61.3248 33.4103 61.3262C36.5624 61.518 39.7397 61.1358 42.7777 60.1831C42.8008 60.1747 42.8239 60.1684 42.8477 60.16C43.253 60.0312 43.6576 59.8919 44.058 59.7428C44.0909 59.7302 44.1231 59.719 44.1546 59.7064C44.5494 59.5566 44.9428 59.3977 45.3327 59.2283C45.3621 59.215 45.3922 59.2024 45.4216 59.1891C45.8185 59.0148 46.2126 58.8293 46.6025 58.6354C46.62 58.6256 46.6382 58.6179 46.6557 58.6081C49.056 57.3978 51.3093 55.7976 53.3141 53.7935C56.2093 50.8983 58.2701 47.4886 59.5091 43.8598C59.5112 43.8549 59.5126 43.8486 59.514 43.8444C59.6638 43.4048 59.7989 42.9631 59.9242 42.5179C59.9431 42.4465 59.9627 42.3772 59.9823 42.3058C60.0873 41.9166 60.1839 41.526 60.2714 41.1326C60.2903 41.05 60.3085 40.9674 60.326 40.8848C60.4107 40.483 60.4863 40.0819 60.5521 39.6773C60.5619 39.615 60.5745 39.5541 60.5843 39.4925C60.8048 38.0729 60.9091 36.6393 60.8937 35.205C60.8923 35.1434 60.8902 35.0818 60.8895 35.0202C60.8818 34.6135 60.8657 34.2089 60.8398 33.8036C60.8342 33.7126 60.8258 33.6209 60.8202 33.5292C60.7908 33.1421 60.753 32.7564 60.7075 32.3707C60.697 32.2839 60.6872 32.1978 60.676 32.1117C60.62 31.6854 60.5542 31.2598 60.4779 30.8363C60.4716 30.8013 60.466 30.7642 60.4604 30.7292C60.284 29.78 60.0551 28.8392 59.7723 27.9103C59.7583 27.8669 59.7436 27.8235 59.7296 27.7801C59.605 27.3769 59.4685 26.9758 59.3236 26.5775C59.29 26.4872 59.255 26.3983 59.2221 26.3087C59.087 25.951 58.9428 25.5947 58.7916 25.2419C58.751 25.1481 58.7104 25.0536 58.6684 24.9591C58.5067 24.5944 58.3331 24.2311 58.1539 23.872C58.1196 23.8041 58.0881 23.7362 58.0531 23.6683C56.8526 21.3261 55.2755 19.126 53.3141 17.1646C47.5027 11.3532 39.6179 8.8871 32.0404 9.7537C32.0348 9.7544 32.0285 9.7551 32.0229 9.7565C31.5707 9.8083 31.1199 9.8727 30.6698 9.9483C30.6551 9.9511 30.6411 9.9532 30.6264 9.9553C27.4106 10.5034 24.2809 11.6612 21.4186 13.4266C21.4165 13.4273 21.4151 13.4287 21.4137 13.4294C21.0105 13.6779 20.6129 13.9397 20.2209 14.2134C20.2097 14.2211 20.1992 14.2281 20.188 14.2365C19.796 14.5102 19.4103 14.7951 19.0309 15.0933C19.0295 15.094 19.0274 15.0961 19.0274 15.0961C18.2175 15.7324 17.4328 16.4177 16.6859 17.1646C13.0816 20.7689 10.7688 25.1712 9.73346 29.8024C9.73346 29.8024 9.73346 29.8045 9.73346 29.8059C9.63896 30.2287 9.55496 30.6543 9.48216 31.0806C9.48146 31.0862 9.48006 31.0939 9.47936 31.0995C9.40656 31.5223 9.34566 31.9465 9.29456 32.3714C9.29316 32.3805 9.29316 32.3889 9.29176 32.398C9.24136 32.8222 9.20006 33.2478 9.17066 33.6741C9.17066 33.6825 9.16996 33.6902 9.16926 33.6986C9.13986 34.1277 9.12096 34.5568 9.11256 34.9866C9.11256 34.9901 9.11256 34.9943 9.11256 34.9978C8.98796 41.7857 11.5073 48.6121 16.6873 53.7914C19.9465 57.0506 23.8609 59.2535 28.0042 60.4113C28.0322 60.4197 28.0602 60.4267 28.0868 60.4344C28.4879 60.5492 28.8946 60.65 29.3013 60.7417ZM45.5133 57.3873C45.3362 57.472 45.157 57.5539 44.9778 57.6351C44.7839 57.7226 44.5872 57.808 44.3919 57.8892C44.2449 57.9508 44.0993 58.011 43.9516 58.0691C43.7143 58.1629 43.4749 58.2532 43.2362 58.3386C43.127 58.3785 43.0171 58.417 42.9086 58.4548C42.623 58.5528 42.336 58.6452 42.0483 58.732C41.9797 58.753 41.9132 58.774 41.8453 58.7943C41.51 58.8916 41.1719 58.9833 40.8338 59.0666C40.8107 59.0722 40.7883 59.0785 40.7631 59.0841C36.5659 60.1005 32.1489 59.9885 28 58.7474V39.5205L45.7492 57.2697C45.6694 57.3096 45.5917 57.3495 45.5133 57.3873ZM55.9566 23.1727C55.9804 23.214 56.0021 23.256 56.0259 23.2966C56.2079 23.6116 56.385 23.9287 56.5523 24.2507C56.5887 24.32 56.6209 24.3907 56.6552 24.46C56.8092 24.7631 56.959 25.0662 57.099 25.3742C57.1284 25.4386 57.1543 25.5044 57.183 25.5681C57.3237 25.8859 57.4602 26.2044 57.5869 26.5271C57.6093 26.5824 57.6289 26.6377 57.6492 26.6923C57.7794 27.0276 57.9019 27.3636 58.016 27.7038C58.0314 27.7514 58.0461 27.7997 58.0615 27.8473C58.1756 28.1945 58.2827 28.5438 58.3814 28.8952C58.3947 28.9414 58.4052 28.9876 58.4192 29.0345C58.5151 29.3866 58.6047 29.7415 58.6852 30.0985C58.6957 30.1475 58.7055 30.1972 58.7174 30.2469C58.7937 30.5976 58.863 30.949 58.9246 31.3025C58.9344 31.362 58.9449 31.4229 58.9554 31.4838C59.0114 31.8233 59.0597 32.1635 59.101 32.5044C59.1115 32.5807 59.1199 32.6563 59.129 32.7319C59.1654 33.0532 59.1948 33.3759 59.2179 33.6972C59.2256 33.7952 59.2326 33.8925 59.2396 33.9905C59.2571 34.2845 59.2676 34.5792 59.276 34.8746C59.2788 34.9999 59.2837 35.1252 59.2844 35.2505C59.2879 35.5095 59.2823 35.7685 59.2767 36.0275C59.2732 36.1871 59.2725 36.3474 59.2655 36.507C59.2564 36.7184 59.241 36.9298 59.2263 37.1398C59.2123 37.3442 59.2018 37.5486 59.1822 37.7523C59.1696 37.8888 59.1507 38.026 59.136 38.1632C58.9722 39.6542 58.6726 41.1326 58.2337 42.5788H36.5512L55.9566 23.1727ZM21.1127 15.5406C21.392 15.346 21.6741 15.1577 21.9597 14.9757C22.0297 14.9309 22.1004 14.8882 22.1704 14.8441C22.4252 14.6845 22.6828 14.5305 22.9432 14.3814C23.0552 14.3184 23.1679 14.2561 23.2806 14.1938C23.4997 14.0734 23.7188 13.9558 23.9407 13.8424C24.1045 13.7584 24.2697 13.6779 24.4349 13.5981C24.6071 13.5148 24.78 13.4329 24.9536 13.3538C25.1762 13.253 25.4002 13.1564 25.6249 13.0626C25.7432 13.0122 25.8615 12.9625 25.9812 12.9156C26.2654 12.8022 26.551 12.6951 26.8387 12.5922C26.9003 12.5705 26.9626 12.5481 27.0249 12.5264C27.3686 12.4081 27.7137 12.2954 28.0609 12.1925C28.0693 12.1904 28.0777 12.1876 28.0868 12.1848C31.0751 11.3035 34.1999 11.0074 37.2799 11.2951C37.3191 11.2986 37.3576 11.3028 37.3968 11.307C37.7286 11.3399 38.059 11.3798 38.3894 11.4253C38.4727 11.4372 38.5553 11.4498 38.6386 11.4624C38.815 11.489 38.9914 11.5205 39.1671 11.5513L39.5101 34.0605L21.0392 15.5917C21.0637 15.5749 21.0882 15.5581 21.1127 15.5406ZM14.1239 47.924C13.9622 47.6524 13.8096 47.3773 13.6584 47.1001C13.6304 47.0483 13.5996 46.9972 13.5723 46.944C13.4337 46.685 13.3028 46.4225 13.174 46.1586C13.1376 46.0851 13.1005 46.0123 13.0648 45.9388C12.9416 45.6784 12.8247 45.4159 12.7106 45.152C12.6777 45.0736 12.642 44.9952 12.6084 44.9168C12.4971 44.6529 12.3921 44.3862 12.2913 44.1188C12.2612 44.039 12.2304 43.9585 12.201 43.878C12.103 43.6099 12.0106 43.3404 11.9224 43.0695C11.8951 42.9876 11.8678 42.9057 11.8419 42.8231C11.7572 42.5522 11.6767 42.282 11.6011 42.0097C11.5773 41.9222 11.5535 41.8347 11.5304 41.7465C11.459 41.4791 11.3925 41.2103 11.3302 40.9415C11.3078 40.8428 11.2875 40.7448 11.2665 40.6461C11.2091 40.3864 11.1566 40.1253 11.1083 39.8635C11.0873 39.748 11.0691 39.6325 11.0502 39.5163C11.0089 39.2699 10.9683 39.0249 10.9354 38.7771C10.9151 38.6315 10.9004 38.4859 10.8829 38.3403C10.857 38.1212 10.8311 37.9035 10.8108 37.6837C10.7926 37.4828 10.7807 37.2812 10.7674 37.0803C10.7562 36.9144 10.7422 36.7478 10.7345 36.5819C10.7198 36.2431 10.7114 35.9036 10.7107 35.5641C10.7107 35.534 10.7093 35.5032 10.7086 35.4731C10.7086 33.9863 10.8479 32.5016 11.1188 31.0351H31.0128L14.1239 47.924ZM14.7399 48.9068L33.7407 29.906H11.3547C12.3515 25.6486 14.5019 21.6082 17.8143 18.2958C18.5479 17.5622 19.3214 16.8916 20.1208 16.2721L40.6819 36.8325L40.3011 11.7767C44.6586 12.7434 48.8012 14.912 52.1843 18.2958C53.3939 19.5047 54.4453 20.8102 55.3462 22.1878L33.8233 43.7093H57.8599C56.6888 46.9804 54.7988 50.0499 52.1836 52.6651C50.5463 54.3024 48.7291 55.6499 46.7985 56.7209L26.8695 36.7919V58.3792C23.5613 57.2109 20.4561 55.3069 17.8136 52.6651C16.6446 51.4954 15.6205 50.2347 14.7399 48.9068Z" fill="#C09A64"/>
</svg>
