<svg width="71" height="71" viewBox="0 0 71 71" fill="none" xmlns="http://www.w3.org/2000/svg">
<path d="M24.6761 29.2456C24.96 29.2718 25.2463 29.2432 25.5194 29.1613C25.6501 29.1187 25.7824 29.0864 25.9126 29.0312L26.1094 28.9552L26.2079 28.9158C26.2663 28.8929 26.3265 28.8746 26.3878 28.8611C26.6645 28.7985 26.9539 28.8255 27.2141 28.9382C27.3453 28.9945 27.4664 29.0717 27.5729 29.1668C27.6369 29.227 27.6484 29.2341 27.6773 29.2581L27.7544 29.3227C27.9645 29.496 28.1963 29.6411 28.4441 29.7542C28.9684 29.9881 29.5291 30.13 30.1016 30.1736C30.6748 30.2273 31.2528 30.1928 31.8155 30.0713L31.8462 30.0642C31.9804 30.032 32.1219 30.0517 32.2423 30.1195C32.3626 30.1872 32.4528 30.298 32.4948 30.4296C32.5369 30.5611 32.5276 30.7037 32.4688 30.8286C32.4101 30.9536 32.3062 31.0517 32.1781 31.1033C31.4893 31.3723 30.7487 31.4825 30.0114 31.426C29.2725 31.3908 28.5497 31.1976 27.8917 30.8594C27.5491 30.6873 27.2354 30.4627 26.962 30.1938L26.7848 30.0145C26.7718 29.9971 26.7559 29.9821 26.7378 29.9702C26.6984 29.9441 26.6514 29.932 26.6044 29.9357C26.098 30.0883 25.0048 30.1725 24.5191 29.4851C24.5023 29.461 24.4927 29.4326 24.4916 29.4032C24.4904 29.3739 24.4978 29.3448 24.5127 29.3195C24.5276 29.2942 24.5495 29.2737 24.5758 29.2605C24.602 29.2473 24.6316 29.2419 24.6608 29.245L24.6761 29.2456Z" fill="#C09A64"/>
<path d="M24.6417 25.3767C25.6945 24.6482 26.9298 24.228 28.2084 24.1631C28.8368 24.1123 29.4683 24.1123 30.0968 24.1631C30.4123 24.1856 30.7273 24.2266 31.0445 24.2807C31.3846 24.3333 31.7181 24.4222 32.0393 24.546C32.1058 24.5733 32.1662 24.6134 32.2172 24.664C32.2682 24.7147 32.3088 24.7749 32.3365 24.8412C32.3642 24.9076 32.3786 24.9787 32.3788 25.0506C32.3791 25.1225 32.3652 25.1937 32.3379 25.2602C32.3106 25.3267 32.2705 25.3872 32.2198 25.4382C32.1691 25.4892 32.1089 25.5297 32.0426 25.5574C31.9763 25.5851 31.9051 25.5995 31.8333 25.5998C31.7614 25.6 31.6901 25.5861 31.6236 25.5588L31.593 25.5451L31.5717 25.5347C31.064 25.3228 30.5309 25.1777 29.9858 25.1032C29.4109 25.0101 28.8296 24.9631 28.2472 24.9627C27.089 24.9267 25.9435 25.2127 24.9381 25.789L24.9304 25.7939C24.8751 25.829 24.8084 25.8414 24.7442 25.8283C24.68 25.8152 24.6234 25.7778 24.5862 25.7238C24.549 25.6699 24.5342 25.6036 24.5449 25.539C24.5555 25.4744 24.5908 25.4164 24.6433 25.3772L24.6417 25.3767Z" fill="#C09A64"/>
<path d="M29.1025 32.1649C29.8911 32.1649 30.5303 31.7418 30.5303 31.2199C30.5303 30.698 29.8911 30.2749 29.1025 30.2749C28.3138 30.2749 27.6746 30.698 27.6746 31.2199C27.6746 31.7418 28.3138 32.1649 29.1025 32.1649Z" fill="#C09A64"/>
<path d="M21.7939 45.6405C21.6489 45.6405 21.5098 45.5829 21.4072 45.4803C21.3047 45.3778 21.2471 45.2387 21.2471 45.0936V39.3481C21.2471 39.2031 21.3047 39.064 21.4072 38.9614C21.5098 38.8589 21.6489 38.8013 21.7939 38.8013C21.939 38.8013 22.0781 38.8589 22.1806 38.9614C22.2832 39.064 22.3408 39.2031 22.3408 39.3481V45.0936C22.3408 45.2387 22.2832 45.3778 22.1806 45.4803C22.0781 45.5829 21.939 45.6405 21.7939 45.6405Z" fill="#C09A64"/>
<path d="M49.6666 39.568C49.3594 39.568 49.0592 39.4769 48.8038 39.3062C48.5484 39.1355 48.3494 38.8929 48.232 38.6091C48.1145 38.3253 48.0839 38.013 48.144 37.7118C48.2041 37.4105 48.3522 37.1339 48.5695 36.9169C48.7869 36.6998 49.0637 36.5521 49.365 36.4925C49.6664 36.4328 49.9786 36.4639 50.2623 36.5817C50.5459 36.6995 50.7882 36.8989 50.9586 37.1545C51.1289 37.4101 51.2196 37.7105 51.2192 38.0177C51.2182 38.4289 51.0542 38.823 50.7632 39.1136C50.4722 39.4042 50.0779 39.5676 49.6666 39.568ZM49.6666 37.5566C49.5759 37.5566 49.4872 37.5835 49.4117 37.6339C49.3363 37.6843 49.2775 37.7559 49.2427 37.8398C49.208 37.9236 49.1989 38.0158 49.2165 38.1048C49.2342 38.1938 49.2778 38.2755 49.342 38.3397C49.4061 38.4039 49.4878 38.4476 49.5767 38.4654C49.6657 38.4832 49.758 38.4742 49.8418 38.4395C49.9257 38.4049 49.9973 38.3462 50.0478 38.2708C50.0983 38.1954 50.1253 38.1067 50.1254 38.016C50.1254 37.8943 50.0771 37.7775 49.9911 37.6914C49.905 37.6052 49.7883 37.5568 49.6666 37.5566Z" fill="#C09A64"/>
<path d="M49.6665 45.3139C49.5215 45.3139 49.3824 45.2563 49.2798 45.1537C49.1772 45.0512 49.1196 44.9121 49.1196 44.767V39.021C49.1196 38.876 49.1772 38.7369 49.2798 38.6343C49.3824 38.5317 49.5215 38.4741 49.6665 38.4741C49.8115 38.4741 49.9506 38.5317 50.0532 38.6343C50.1558 38.7369 50.2134 38.876 50.2134 39.021V44.767C50.2134 44.9121 50.1558 45.0512 50.0532 45.1537C49.9506 45.2563 49.8115 45.3139 49.6665 45.3139Z" fill="#C09A64"/>
<path d="M39.6922 37.7529C39.5771 37.665 39.4319 37.6264 39.2884 37.6455C39.1448 37.6645 39.0147 37.7397 38.9266 37.8546C38.8492 37.9316 38.7524 37.9862 38.6464 38.0124C38.5404 38.0386 38.4293 38.0355 38.325 38.0033L37.3138 37.5604C37.2958 37.5527 37.2783 37.5461 37.2591 37.5401C37.0479 37.4728 36.8252 37.4491 36.6046 37.4705C36.3839 37.492 36.1699 37.5581 35.9756 37.6648C35.7809 37.5581 35.5666 37.492 35.3456 37.4706C35.1246 37.4492 34.9015 37.4728 34.6899 37.5401C34.6724 37.5461 34.6544 37.5527 34.6352 37.5604L33.623 38.0033C33.5186 38.0348 33.4076 38.0376 33.3018 38.0114C33.196 37.9852 33.0991 37.9311 33.0214 37.8546C32.9777 37.7975 32.9233 37.7496 32.8611 37.7135C32.7989 37.6775 32.7302 37.654 32.659 37.6445C32.5877 37.635 32.5153 37.6397 32.4458 37.6582C32.3764 37.6767 32.3112 37.7087 32.2541 37.7523C32.197 37.796 32.1491 37.8505 32.1131 37.9127C32.077 37.9748 32.0536 38.0435 32.0441 38.1148C32.0346 38.186 32.0392 38.2584 32.0577 38.3279C32.0762 38.3973 32.1082 38.4625 32.1519 38.5196C32.3094 38.7122 32.5087 38.8665 32.7347 38.9707C32.9607 39.0749 33.2074 39.1264 33.4562 39.1211C33.6645 39.1237 33.8711 39.0835 34.0632 39.003L35.0476 38.5737C35.1439 38.5481 35.2454 38.5485 35.3415 38.5751C35.4376 38.6016 35.5249 38.6532 35.5945 38.7247C35.6225 38.7472 35.6527 38.7668 35.6847 38.7832C35.7128 38.8056 35.743 38.8252 35.7749 38.8417C35.8006 38.8485 35.8268 38.8536 35.8531 38.857C35.8946 38.8696 35.9373 38.8775 35.9805 38.8805C36.0097 38.877 36.0386 38.8714 36.067 38.8636C36.1073 38.8599 36.1471 38.8519 36.1856 38.8395C36.2178 38.8223 36.2482 38.8019 36.2764 38.7788C36.3074 38.7624 36.3367 38.743 36.3639 38.7208C36.4324 38.651 36.5182 38.6006 36.6126 38.5747C36.7069 38.5489 36.8064 38.5485 36.9009 38.5737L37.8815 39.003C38.0736 39.0835 38.2802 39.1237 38.4885 39.1211C38.7373 39.1264 38.984 39.0749 39.21 38.9707C39.436 38.8665 39.6353 38.7122 39.7928 38.5196C39.8811 38.4046 39.9201 38.2592 39.9013 38.1154C39.8824 37.9716 39.8072 37.8412 39.6922 37.7529Z" fill="#C09A64"/>
<path d="M36.6089 40.8506H35.3347C35.1897 40.8506 35.0506 40.793 34.948 40.6904C34.8455 40.5879 34.7878 40.4488 34.7878 40.3037C34.7878 40.1587 34.8455 40.0196 34.948 39.917C35.0506 39.8145 35.1897 39.7568 35.3347 39.7568H36.6089C36.754 39.7568 36.8931 39.8145 36.9956 39.917C37.0982 40.0196 37.1558 40.1587 37.1558 40.3037C37.1558 40.4488 37.0982 40.5879 36.9956 40.6904C36.8931 40.793 36.754 40.8506 36.6089 40.8506Z" fill="#C09A64"/>
<path d="M60.7846 47.4399C56.1143 40.5531 54.2342 36.7266 54.6815 30.857C55.0096 26.5454 54.8543 20.8678 50.9431 14.8773C53.0102 13.9963 54.3845 13.2635 55.0145 12.7008C56.2592 11.5879 56.3123 10.668 56.1367 10.0922C55.8885 9.27185 55.0337 8.7042 53.7923 8.53029C51.6771 8.28171 49.5396 8.28869 47.4261 8.55107C47.2815 8.56813 47.1351 8.54475 47.003 8.48354C46.8709 8.42233 46.7584 8.32569 46.678 8.20435C45.4251 6.33021 40.5688 0.366542 30.701 2.31178C19.0061 4.61412 17.6952 13.3937 17.5727 16.0334C17.5665 16.188 17.5163 16.3376 17.428 16.4646C17.3396 16.5917 17.2168 16.6908 17.074 16.7504C12.1073 18.8629 9.89407 20.9553 10.5022 22.9612C10.7177 23.6771 11.3356 24.5537 13.0583 24.6675C13.2891 24.6824 13.5388 24.6897 13.8075 24.6894C14.6897 24.6797 15.5707 24.6224 16.4467 24.5176C16.0687 27.3173 16.001 30.1501 16.2449 32.9647C16.3062 33.8364 16.409 34.7912 16.5594 35.8779C16.9422 38.8551 14.9899 41.8705 12.9238 45.0654C10.6449 48.5867 8.2879 52.2294 9.24985 55.964C9.93454 58.6251 12.2298 61.0002 16.2499 63.2178C16.158 64.7518 17.4721 65.705 18.8059 66.4383C19.6467 66.8809 20.5207 67.2572 21.42 67.5638C23.73 68.3743 28.694 69.7365 35.9724 69.7365H35.9762C43.2496 69.7365 48.212 68.3743 50.5231 67.5616C51.4223 67.2551 52.2963 66.879 53.1371 66.4367C54.5043 65.6847 55.8349 64.7069 55.685 63.1374C56.9926 62.6376 61.4168 60.6819 62.7999 56.6389C63.7399 53.8908 63.0618 50.7961 60.7846 47.4399ZM13.1294 23.5759C11.9405 23.4977 11.6583 23.0077 11.5495 22.6462C11.1492 21.3184 13.3186 19.5367 17.5027 17.7561C17.8342 17.6142 18.1191 17.3818 18.3247 17.0856C18.5303 16.7893 18.6484 16.4412 18.6654 16.081C18.7792 13.6458 19.9976 5.53342 30.9121 3.38474C32.0824 3.14879 33.273 3.02754 34.4668 3.02271C36.6831 2.97626 38.8762 3.48122 40.849 4.4922C42.8218 5.50317 44.5124 6.9885 45.7691 8.81467C45.9646 9.10343 46.2359 9.33275 46.5532 9.47746C46.8705 9.62216 47.2215 9.67666 47.5677 9.63498C49.5829 9.3835 51.621 9.37579 53.6381 9.61201C54.4174 9.72139 54.9735 10.0265 55.0895 10.4088C55.2054 10.7911 54.9106 11.3243 54.285 11.8854C53.8732 12.2529 52.7822 12.9397 49.9177 14.1232C46.363 15.5948 41.1578 17.3722 35.6388 18.9986C31.4863 20.223 27.4231 21.2883 23.8892 22.0791C21.2642 22.6676 18.9503 23.0947 17.0204 23.3501C15.7329 23.5426 14.4305 23.6182 13.1294 23.5759ZM49.181 56.8035C49.7481 59.7293 50.1468 64.5751 49.8542 66.6341C45.6534 67.9579 41.2748 68.6318 36.8703 68.6324C37.9065 67.3994 39.0496 66.2602 40.2861 65.2281C43.0905 62.6933 46.5801 59.5406 48.5281 55.7825C48.6188 55.6097 48.7063 55.4341 48.7895 55.258C48.8059 55.2785 48.8184 55.3019 48.8261 55.3269C48.976 55.811 49.0945 56.3042 49.181 56.8035ZM22.0894 66.6347C21.8105 64.6003 22.1988 59.6997 22.7626 56.8024C22.85 56.3029 22.97 55.8097 23.1219 55.3258C23.1296 55.3022 23.1409 55.2799 23.1552 55.2597C23.2378 55.4347 23.3242 55.608 23.4134 55.7781C25.3646 59.5384 28.857 62.6944 31.663 65.2308C32.8983 66.2617 34.0406 67.3992 35.0766 68.6302C30.6712 68.6302 26.2916 67.9572 22.0894 66.6347ZM39.5522 64.4171C38.4607 65.3588 37.4231 66.3612 36.4443 67.4194C36.3798 66.1862 36.4087 64.9498 36.5307 63.7209C36.554 63.5777 36.5194 63.4311 36.4346 63.3133C36.3498 63.1956 36.2217 63.1164 36.0784 63.0931C35.9352 63.0698 35.7886 63.1044 35.6709 63.1892C35.5531 63.274 35.4739 63.4021 35.4506 63.5454C35.3211 64.7735 35.2858 66.0098 35.3451 67.2433C34.615 66.4318 33.6033 65.5119 32.3969 64.4215C29.7719 62.0475 26.5311 59.1168 24.628 55.719C25.2656 55.316 25.9339 54.919 26.6416 54.5394C27.0878 54.2988 27.568 54.0812 28.0328 53.8695C30.1902 52.889 32.6167 51.781 33.069 47.7817C34.9222 48.4567 36.9527 48.4648 38.8112 47.8047C39.2678 51.7843 41.7042 52.8829 43.8698 53.8547C44.3718 54.0801 44.846 54.2922 45.3048 54.5394C46.0157 54.9222 46.6818 55.3171 47.3178 55.7185C45.4147 59.1124 42.1772 62.0437 39.5522 64.4171ZM39.0972 46.5523C38.1041 46.9554 37.046 47.1748 35.9745 47.1998C34.8778 47.1734 33.7953 46.945 32.7813 46.5261C31.4004 45.9631 30.0823 45.2569 28.8488 44.419C27.5251 43.6185 26.3897 42.5417 25.5202 41.2623C24.6507 39.9829 24.0675 38.5309 23.8104 37.0055C23.5394 35.6689 23.3678 34.3141 23.2969 32.9521C23.2329 31.9338 23.1995 30.8291 23.1941 29.5795C23.1941 29.4215 23.1941 29.2689 23.1995 29.1081C23.2103 27.0412 23.6188 24.9957 24.4027 23.0832C27.7315 22.3307 31.5055 21.343 35.3757 20.2132C35.5037 20.9197 35.5874 21.7247 35.6738 22.5708C36.0702 26.4601 36.6122 31.7872 42.3134 35.7745C44.0061 36.8832 45.9635 37.5211 47.9845 37.6224C47.6667 39.0248 47.0701 40.3489 46.2302 41.5161C45.3903 42.6832 44.3242 43.6695 43.0954 44.4162C41.843 45.2694 40.5026 45.9856 39.0972 46.5523ZM22.137 31.5701C21.7033 31.3801 21.2201 31.334 20.7583 31.4383C20.6878 31.4523 20.6208 31.48 20.5611 31.5199C20.5013 31.5597 20.45 31.611 20.4101 31.6707C20.3702 31.7304 20.3424 31.7974 20.3283 31.8678C20.3143 31.9382 20.3142 32.0107 20.3282 32.0812C20.3421 32.1516 20.3699 32.2187 20.4097 32.2784C20.4496 32.3381 20.5008 32.3894 20.5605 32.4294C20.6202 32.4693 20.6872 32.4971 20.7576 32.5112C20.8281 32.5252 20.9006 32.5253 20.971 32.5113C21.219 32.4386 21.4853 32.4628 21.7161 32.579C21.9469 32.6953 22.1249 32.8949 22.2141 33.1375C22.2844 34.3219 22.4243 35.5012 22.633 36.6692C21.9724 36.6919 21.3209 36.51 20.7676 36.1486C20.3048 35.8666 19.9023 35.496 19.5832 35.058C19.2641 34.62 19.0347 34.1233 18.9082 33.5963C18.8557 33.3256 18.8226 33.0514 18.8092 32.776C18.7671 31.9688 18.8431 30.0416 20.4334 29.5664C20.9832 29.4522 21.5497 29.4442 22.1025 29.5429V29.5795C22.1036 30.2877 22.1162 30.9445 22.137 31.5701ZM10.3092 55.6873C9.46696 52.4154 11.5916 49.1319 13.842 45.656C15.9239 42.4404 18.0775 39.1115 17.6438 35.7335C17.4962 34.666 17.3961 33.7347 17.3354 32.8821C17.0877 30.0472 17.1672 27.1932 17.5722 24.3765C19.1904 24.1496 21.0465 23.8122 23.1153 23.3681C22.536 25.0012 22.2042 26.7118 22.1309 28.4431C21.4625 28.3389 20.7803 28.3649 20.1217 28.5197C18.5002 29.0037 17.6001 30.6164 17.7155 32.8345C17.7322 33.1623 17.772 33.4885 17.8347 33.8107C17.9927 34.4837 18.2821 35.1188 18.6864 35.6794C19.0908 36.2401 19.602 36.7153 20.1906 37.0777C20.8751 37.5182 21.6693 37.7582 22.4831 37.7706C22.6094 37.7689 22.7355 37.7609 22.861 37.7465C23.1975 39.3103 23.8487 40.7893 24.7748 42.0935C25.7009 43.3976 26.8827 44.4998 28.2483 45.3328C29.4356 46.1307 30.694 46.8174 32.0075 47.3841C31.7051 50.9886 29.791 51.8685 27.5811 52.8742C27.0999 53.0929 26.6027 53.3188 26.1248 53.5758C25.4248 53.951 24.762 54.3442 24.1265 54.7434C24.0997 54.686 24.0718 54.6302 24.0439 54.5728C23.9643 54.4196 23.8399 54.2943 23.6873 54.2135C23.5347 54.1327 23.3612 54.1003 23.1897 54.1205C22.9405 54.135 22.7016 54.2248 22.5046 54.3782C22.3076 54.5315 22.1618 54.7411 22.0867 54.9791C21.938 55.4427 21.8191 55.9152 21.7306 56.3939C19.8167 57.7921 18.1684 59.5214 16.8634 61.5001C16.7384 61.6989 16.6278 61.9065 16.5326 62.1213C12.9413 60.0995 10.9014 57.9919 10.3092 55.689V55.6873ZM17.3748 63.0275C17.4571 62.6901 17.5974 62.3697 17.7893 62.0803C18.7922 60.5471 20.0261 59.1781 21.4474 58.0219C21.0214 60.7317 20.854 63.4759 20.9475 66.2174C20.395 66.0046 19.8563 65.7578 19.3342 65.4786C17.7363 64.5992 17.1867 63.9129 17.3748 63.0291V63.0275ZM52.6088 65.4769C52.0883 65.7557 51.551 66.0019 50.9999 66.2141C51.0907 63.4724 50.9213 60.7283 50.4941 58.0186C51.9169 59.1753 53.1518 60.5454 54.1549 62.0803C54.3247 62.3383 54.4538 62.6208 54.5377 62.9181C54.8007 63.8675 54.2774 64.5604 52.6088 65.4786V65.4769ZM61.7663 56.2779C60.5801 59.7544 56.6606 61.5662 55.3924 62.0748C55.3018 61.8769 55.1979 61.6855 55.0813 61.5017C53.7763 59.5232 52.128 57.7941 50.2141 56.3961C50.1253 55.9181 50.008 55.4459 49.863 54.9819C49.7859 54.7426 49.6382 54.5323 49.4392 54.3786C49.2403 54.2249 48.9994 54.1352 48.7484 54.1211C48.5776 54.1017 48.405 54.1347 48.2533 54.2157C48.1016 54.2966 47.9781 54.4217 47.8992 54.5744C47.8734 54.6319 47.8445 54.6876 47.8166 54.7445C47.1827 54.3464 46.5205 53.9532 45.8188 53.5775C45.3267 53.3122 44.8115 53.0809 44.3144 52.8578C42.0974 51.863 40.1773 50.9908 39.8705 47.4137C41.2079 46.843 42.4883 46.1472 43.6948 45.3355C46.6479 43.3936 48.2388 41.1208 49.1285 37.565C50.7692 37.3019 52.7789 36.2175 52.932 35.2216C52.9617 35.0251 52.9209 34.8243 52.8166 34.655C52.7124 34.4858 52.5516 34.3589 52.3627 34.2969C50.3437 33.4968 49.8701 32.8444 49.8313 30.8089C49.8397 30.4033 49.8693 29.9984 49.9199 29.5959C50.1561 27.2887 50.5963 22.994 47.5683 18.0902C47.5323 18.0258 47.4836 17.9693 47.4251 17.9242C47.3667 17.8791 47.2997 17.8463 47.2283 17.8278C47.1568 17.8093 47.0824 17.8054 47.0094 17.8164C46.9364 17.8274 46.8664 17.8531 46.8036 17.8919C46.7408 17.9307 46.6865 17.9818 46.644 18.0421C46.6015 18.1024 46.5716 18.1708 46.5562 18.2429C46.5408 18.3151 46.5401 18.3897 46.5543 18.4621C46.5685 18.5346 46.5971 18.6034 46.6386 18.6644C49.4714 23.2522 49.0717 27.1503 48.8316 29.4811C48.7749 29.9274 48.7433 30.3765 48.737 30.8264C48.7835 33.2184 49.4873 34.2772 51.7207 35.214C50.8497 35.9477 49.7784 36.403 48.6456 36.521C46.6223 36.5629 44.6336 35.9909 42.9417 34.8804C37.6507 31.1797 37.158 26.3453 36.762 22.4608C36.6691 21.5481 36.5772 20.6819 36.4284 19.9047C41.5926 18.3697 46.4494 16.7132 49.9144 15.3055C53.7365 21.0428 53.9274 26.3376 53.5894 30.7739C53.1202 36.9322 55.1502 41.0819 59.8784 48.0551C61.9517 51.1083 62.5866 53.8772 61.7663 56.2796V56.2779Z" fill="#C09A64"/>
<path d="M35.9746 35.8958C35.9603 35.8958 34.5144 35.8722 34.5144 35.0262C34.5142 34.9096 34.5513 34.796 34.6203 34.702C34.6893 34.6079 34.7865 34.5384 34.8977 34.5035C35.009 34.4687 35.1285 34.4703 35.2388 34.5081C35.3491 34.546 35.4444 34.6181 35.5108 34.714C35.6606 34.7646 35.8167 34.7942 35.9746 34.802C36.1309 34.7944 36.2854 34.7647 36.4334 34.714C36.4999 34.6183 36.5952 34.5465 36.7053 34.5088C36.8155 34.4711 36.9349 34.4695 37.046 34.5044C37.1571 34.5392 37.2542 34.6086 37.3232 34.7025C37.3921 34.7963 37.4293 34.9098 37.4292 35.0262C37.4292 35.8722 35.9893 35.8958 35.9746 35.8958Z" fill="#C09A64"/>
<path d="M21.7942 39.8948C21.4869 39.8949 21.1866 39.8039 20.9311 39.6333C20.6756 39.4627 20.4765 39.2202 20.3589 38.9364C20.2412 38.6526 20.2104 38.3404 20.2703 38.039C20.3301 37.7377 20.478 37.4609 20.6952 37.2437C20.9124 37.0264 21.1891 36.8784 21.4904 36.8185C21.7917 36.7585 22.104 36.7892 22.3878 36.9067C22.6717 37.0243 22.9143 37.2234 23.0849 37.4788C23.2556 37.7342 23.3467 38.0345 23.3467 38.3417C23.3464 38.7534 23.1828 39.1482 22.8917 39.4394C22.6006 39.7306 22.2059 39.8944 21.7942 39.8948ZM21.7942 37.8829C21.7032 37.8828 21.6144 37.9096 21.5387 37.9601C21.4631 38.0105 21.4041 38.0822 21.3693 38.1662C21.3345 38.2502 21.3253 38.3426 21.343 38.4317C21.3607 38.5209 21.4045 38.6028 21.4688 38.6671C21.5331 38.7314 21.615 38.7751 21.7041 38.7928C21.7933 38.8105 21.8857 38.8014 21.9697 38.7665C22.0536 38.7317 22.1254 38.6728 22.1758 38.5971C22.2262 38.5215 22.2531 38.4326 22.253 38.3417C22.2528 38.2201 22.2044 38.1034 22.1184 38.0174C22.0324 37.9314 21.9158 37.883 21.7942 37.8829Z" fill="#C09A64"/>
</svg>
